<?xml version="1.0" encoding="utf-8"?>
<!-- Generator: Adobe Illustrator 16.0.0, SVG Export Plug-In . SVG Version: 6.00 Build 0)  -->
<!DOCTYPE svg PUBLIC "-//W3C//DTD SVG 1.1//EN" "http://www.w3.org/Graphics/SVG/1.1/DTD/svg11.dtd">
<svg version="1.1" id="Layer_1" xmlns="http://www.w3.org/2000/svg" xmlns:xlink="http://www.w3.org/1999/xlink" x="0px" y="0px"
	 width="130px" height="130px" viewBox="0 0 130 130" enable-background="new 0 0 130 130" xml:space="preserve">
<g>
	<g id="Base_icon_copy_10_9_">
		<rect fill="#FF7E30" x="1" y="1" width="128" height="128" rx="5" ry="5"/>
	</g>
	<g id="Shape_26_copy">
		<path fill="#f5d82c" stroke="#000000" stroke-width="4" d="M87.123,86.953c-3.769-8.477-9.001-14.018-13.188-17.369c3.139-0.418,6.696-1.669,11.719-4.499
			l1.571-0.832l-0.735-1.782l-3.975-9.104l-0.938-2.088l-1.992,1.149c-0.103,0.103-4.288,2.199-9.098,1.675
			c5.23-1.36,9.098-6.07,9.098-11.718c0-6.805-5.438-12.242-12.235-12.242c-6.702,0-12.14,5.438-12.14,12.242
			c0,2.721,0.939,5.232,2.511,7.322c-6.586,4.499-8.471,11.928-8.996,18.521c-0.21,1.675-0.312,2.198-0.312,2.403
			c-4.185,8.58-13.182,9.839-13.602,9.941l-2.615,0.312l0.94,2.408l4.287,11.609l0.524,1.675l1.782-0.417
			c13.078-2.721,17.78-8.79,21.55-13.703c9.208,4.6,12.556,12.023,12.556,12.023c0.312,0.422,1.047,1.885,1.047,1.885l1.776-1.148
			l9.622-5.649l1.68-0.939L87.123,86.953z"/>
	</g>
</g>
</svg>
