<?xml version="1.0" encoding="utf-8"?>
<!-- Generator: Adobe Illustrator 16.0.0, SVG Export Plug-In . SVG Version: 6.00 Build 0)  -->
<!DOCTYPE svg PUBLIC "-//W3C//DTD SVG 1.1//EN" "http://www.w3.org/Graphics/SVG/1.1/DTD/svg11.dtd">
<?xml-stylesheet href="../css/svg.css" type="text/css"?>
<svg version="1.1" id="Layer_1" xmlns="http://www.w3.org/2000/svg" xmlns:xlink="http://www.w3.org/1999/xlink" x="0px" y="0px"
	 viewBox="0 0 130 130" enable-background="new 0 0 130 130" xml:space="preserve">

<g id="googleplus-button" class="social-button">
	<defs>
		<mask id="mask">
			<rect fill="white" x="0" y="0" width="130" height="130"/>
			<path d="M75.275,40.021h-15.72c-2.085,0-4.32,0.23-6.703,0.69c-2.41,0.535-4.73,1.676-6.967,3.423
			c-3.253,2.985-4.878,6.311-4.878,9.974c0,3.035,1.149,5.692,3.45,7.975c2.196,2.45,5.392,3.7,9.584,3.75
			c0.791,0,1.635-0.049,2.528-0.146c-0.147,0.395-0.308,0.825-0.48,1.293c-0.197,0.444-0.297,1-0.297,1.667
			c0,1.11,0.26,2.062,0.779,2.853c0.443,0.816,0.95,1.58,1.52,2.297c-1.84,0.048-4.152,0.264-6.937,0.652
			c-2.81,0.459-5.492,1.378-8.045,2.754c-2.273,1.282-3.845,2.77-4.713,4.462c-0.893,1.69-1.34,3.226-1.34,4.604
			c0,2.828,1.372,5.258,4.114,7.288c2.718,2.177,6.83,3.288,12.341,3.337c6.582-0.098,11.619-1.592,15.109-4.481
			c3.365-2.793,5.05-5.999,5.05-9.616c-0.05-2.552-0.659-4.615-1.83-6.194c-1.244-1.555-2.691-2.974-4.34-4.261l-2.656-2.077
			c-0.383-0.364-0.776-0.788-1.184-1.276c-0.479-0.51-0.717-1.152-0.717-1.931c0-0.802,0.231-1.505,0.697-2.112
			c0.395-0.583,0.825-1.104,1.29-1.567c0.814-0.68,1.58-1.348,2.303-2.003c0.651-0.655,1.268-1.372,1.85-2.149
			c1.185-1.603,1.8-3.739,1.848-6.412c0-1.457-0.173-2.73-0.518-3.824c-0.418-1.094-0.9-2.042-1.442-2.843
			c-0.567-0.85-1.147-1.566-1.737-2.149c-0.617-0.558-1.171-0.984-1.663-1.274H70.4L75.275,40.021z M66.628,80.795
			c1.302,1.407,1.952,3.058,1.952,4.951c0,2.331-0.952,4.236-2.854,5.717c-1.951,1.505-4.78,2.282-8.485,2.33
			c-4.13-0.048-7.385-0.923-9.763-2.621c-2.503-1.699-3.755-3.859-3.755-6.48c0-1.336,0.288-2.477,0.864-3.422
			c0.5-0.899,1.113-1.65,1.84-2.258c0.751-0.582,1.49-1.033,2.216-1.347c0.725-0.292,1.288-0.51,1.689-0.655
			c1.701-0.486,3.366-0.838,4.995-1.057c1.65-0.146,2.676-0.193,3.077-0.146c0.676,0,1.264,0.024,1.766,0.073
			C63.098,77.822,65.252,79.46,66.628,80.795z M64.112,58.785c-0.185,0.999-0.598,1.973-1.242,2.923
			c-1.383,1.339-3.112,2.045-5.186,2.119c-1.646,0-3.106-0.475-4.385-1.425c-1.279-0.95-2.324-2.106-3.132-3.471
			c-1.671-2.921-2.506-5.734-2.506-8.439c-0.052-2.045,0.519-3.895,1.71-5.551c1.411-1.583,3.184-2.399,5.315-2.447
			c1.61,0.048,3.035,0.499,4.274,1.351c1.215,0.9,2.193,2.07,2.938,3.506c1.585,2.997,2.378,5.968,2.378,8.914
			C64.277,56.947,64.223,57.787,64.112,58.785z M92.955,51.309V40.751h-3.261v10.558H79.27v3.353h10.425v10.752h3.261V54.662h10.322
			v-3.353H92.955z"/>
		</mask>
	</defs>
	<a xlink:href="https://plus.google.com/+RobertMarll/posts" xlink:title="Text me on Hangouts" target="_top">	
		<path class="figure" d="M75.275,40.021h-15.72c-2.085,0-4.32,0.23-6.703,0.69c-2.41,0.535-4.73,1.676-6.967,3.423
		c-3.253,2.985-4.878,6.311-4.878,9.974c0,3.035,1.149,5.692,3.45,7.975c2.196,2.45,5.392,3.7,9.584,3.75
		c0.791,0,1.635-0.049,2.528-0.146c-0.147,0.395-0.308,0.825-0.48,1.293c-0.197,0.444-0.297,1-0.297,1.667
		c0,1.11,0.26,2.062,0.779,2.853c0.443,0.816,0.95,1.58,1.52,2.297c-1.84,0.048-4.152,0.264-6.937,0.652
		c-2.81,0.459-5.492,1.378-8.045,2.754c-2.273,1.282-3.845,2.77-4.713,4.462c-0.893,1.69-1.34,3.226-1.34,4.604
		c0,2.828,1.372,5.258,4.114,7.288c2.718,2.177,6.83,3.288,12.341,3.337c6.582-0.098,11.619-1.592,15.109-4.481
		c3.365-2.793,5.05-5.999,5.05-9.616c-0.05-2.552-0.659-4.615-1.83-6.194c-1.244-1.555-2.691-2.974-4.34-4.261l-2.656-2.077
		c-0.383-0.364-0.776-0.788-1.184-1.276c-0.479-0.51-0.717-1.152-0.717-1.931c0-0.802,0.231-1.505,0.697-2.112
		c0.395-0.583,0.825-1.104,1.29-1.567c0.814-0.68,1.58-1.348,2.303-2.003c0.651-0.655,1.268-1.372,1.85-2.149
		c1.185-1.603,1.8-3.739,1.848-6.412c0-1.457-0.173-2.73-0.518-3.824c-0.418-1.094-0.9-2.042-1.442-2.843
		c-0.567-0.85-1.147-1.566-1.737-2.149c-0.617-0.558-1.171-0.984-1.663-1.274H70.4L75.275,40.021z M66.628,80.795
		c1.302,1.407,1.952,3.058,1.952,4.951c0,2.331-0.952,4.236-2.854,5.717c-1.951,1.505-4.78,2.282-8.485,2.33
		c-4.13-0.048-7.385-0.923-9.763-2.621c-2.503-1.699-3.755-3.859-3.755-6.48c0-1.336,0.288-2.477,0.864-3.422
		c0.5-0.899,1.113-1.65,1.84-2.258c0.751-0.582,1.49-1.033,2.216-1.347c0.725-0.292,1.288-0.51,1.689-0.655
		c1.701-0.486,3.366-0.838,4.995-1.057c1.65-0.146,2.676-0.193,3.077-0.146c0.676,0,1.264,0.024,1.766,0.073
		C63.098,77.822,65.252,79.46,66.628,80.795z M64.112,58.785c-0.185,0.999-0.598,1.973-1.242,2.923
		c-1.383,1.339-3.112,2.045-5.186,2.119c-1.646,0-3.106-0.475-4.385-1.425c-1.279-0.95-2.324-2.106-3.132-3.471
		c-1.671-2.921-2.506-5.734-2.506-8.439c-0.052-2.045,0.519-3.895,1.71-5.551c1.411-1.583,3.184-2.399,5.315-2.447
		c1.61,0.048,3.035,0.499,4.274,1.351c1.215,0.9,2.193,2.07,2.938,3.506c1.585,2.997,2.378,5.968,2.378,8.914
		C64.277,56.947,64.223,57.787,64.112,58.785z M92.955,51.309V40.751h-3.261v10.558H79.27v3.353h10.425v10.752h3.261V54.662h10.322
		v-3.353H92.955z"/>
		<rect class="background" x="0" y="0" width="130" height="130" mask="url(#mask)"/>
	</a>
</g>
</svg>
