<?xml version="1.0" encoding="utf-8"?>
<!-- Generator: Adobe Illustrator 16.0.0, SVG Export Plug-In . SVG Version: 6.00 Build 0)  -->
<!DOCTYPE svg PUBLIC "-//W3C//DTD SVG 1.1//EN" "http://www.w3.org/Graphics/SVG/1.1/DTD/svg11.dtd">
<?xml-stylesheet href="../css/svg.css" type="text/css"?>
<svg version="1.1" id="Layer_1" xmlns="http://www.w3.org/2000/svg" xmlns:xlink="http://www.w3.org/1999/xlink" x="0px" y="0px"
	 viewBox="0 0 130 130" enable-background="new 0 0 130 130" xml:space="preserve">
<g id="linkedin-button" class="social-button">
	<defs>
		<mask id="mask">
			<rect fill="white" x="0" y="0" width="130" height="130"/>
			<path d="M39.62,91.448h11.603V50.841H39.62V91.448z M83.91,53.155c-4.318-2.424-10.692-2.628-15.285-0.534v-1.78
			H57.024v40.607h11.601V65.478l4.782-2.301c1.173-0.564,3.742-0.513,4.83,0.099c0.82,0.46,1.99,2.357,1.99,3.52v24.653H91.83
			V66.795C91.83,61.463,88.498,55.724,83.91,53.155z M45.422,31.987c-4.01,0-7.252,3.247-7.252,7.253c0,4.005,3.242,7.25,7.252,7.25
			c4.011,0,7.251-3.245,7.251-7.25C52.673,35.234,49.433,31.987,45.422,31.987z"/>
		</mask>
	</defs>
	<a xlink:href="https://www.linkedin.com/in/rmarll" xlink:title="Please, do not." target="_top">
		<path class="figure" d="M39.62,91.448h11.603V50.841H39.62V91.448z M83.91,53.155c-4.318-2.424-10.692-2.628-15.285-0.534v-1.78
		H57.024v40.607h11.601V65.478l4.782-2.301c1.173-0.564,3.742-0.513,4.83,0.099c0.82,0.46,1.99,2.357,1.99,3.52v24.653H91.83
		V66.795C91.83,61.463,88.498,55.724,83.91,53.155z M45.422,31.987c-4.01,0-7.252,3.247-7.252,7.253c0,4.005,3.242,7.25,7.252,7.25
		c4.011,0,7.251-3.245,7.251-7.25C52.673,35.234,49.433,31.987,45.422,31.987z"/>
		<rect class="background" x="0" y="0" width="130" height="130" mask="url(#mask)"/>
	</a>
</g>
</svg>
