<?xml version="1.0" encoding="utf-8"?>
<!-- Generator: Adobe Illustrator 18.1.1, SVG Export Plug-In . SVG Version: 6.00 Build 0)  -->
<?xml-stylesheet href="../css/svg.css" type="text/css"?>
<svg version="1.1" id="Layer_1" xmlns="http://www.w3.org/2000/svg" xmlns:xlink="http://www.w3.org/1999/xlink" x="0px" y="0px"
	 viewBox="0 0 130 130" enable-background="new 0 0 130 130" xml:space="preserve">
<script type="text/ecmascript">
<![CDATA[
	// Email obfuscator script 2.1 by Tim Williams, University of Arizona
	// Random encryption key feature by Andrew Moulden, Site Engineering Ltd
	// This code is freeware provided these four comment lines remain intact
	// A wizard to generate this code is at http://www.jottings.com/obfuscator/

	{ coded = "zvjdzu@tGzTT.Yvt"
	key = "fiSWcxvsBFrgy3mMk04RYHb9XazIpQthCleNJAj2VGDLnOuKwTd7o5U1ZqPE86"
	shift=coded.length
	link=""
	for (i=0; i<coded.length; i++) {
	  if (key.indexOf(coded.charAt(i))==-1) {
		ltr = coded.charAt(i)
		link += (ltr)
	  }
	  else {     
		ltr = (key.indexOf(coded.charAt(i))-shift+key.length) % key.length
		link += (key.charAt(ltr))
	  }
	}
	}

	function emailme()
	{
		window.location.href = "mailto:"+link;
	}
	
	// ]]>
</script>

<g id="mail-button" class="social-button" onclick="emailme()">
	<defs>
		<mask id="mask">
			<rect fill="white" x="0" y="0" width="130" height="130"/>
			<path d="M54.5,67.3c-4.2-2.8-19.6-14.8-24-18.7v35.3"/>
			<path d="M70.6,69c-2.2,0.9-4.2,1.3-6.1,1.3l0,0c-2,0-3.8-0.5-5.3-1.1L31.5,87.8c1.3,2.6,4,4,7.1,4h53.1
				c2.8,0,5.3-1.5,6.7-3.8"/>
			<path d="M56.2,63.8c3.7,2.3,5.5,2.8,8.2,2.8c2,0,4.6-0.6,8.1-2.8c7.3-4.8,22.7-17.1,27-20.1
				c-0.9-3.3-4-5.9-7.7-5.9H38.5c-3.9,0-7.1,2.7-7.8,6.4"/>
			<path d="M99.8,48.2C93.7,52.4,81.1,62.8,74.5,67c-0.1,0-0.1,0.1,0,0l25.3,17.8"/>
		</mask>
	</defs>
	<g>
		<a xlink:title="Email me" onMouseOver="titletext()">
			<path class="figure" d="M54.5,67.3c-4.2-2.8-19.6-14.8-24-18.7v35.3"/>
			<path class="figure" d="M70.6,69c-2.2,0.9-4.2,1.3-6.1,1.3l0,0c-2,0-3.8-0.5-5.3-1.1L31.5,87.8c1.3,2.6,4,4,7.1,4h53.1
				c2.8,0,5.3-1.5,6.7-3.8"/>
			<path class="figure" d="M56.2,63.8c3.7,2.3,5.5,2.8,8.2,2.8c2,0,4.6-0.6,8.1-2.8c7.3-4.8,22.7-17.1,27-20.1
				c-0.9-3.3-4-5.9-7.7-5.9H38.5c-3.9,0-7.1,2.7-7.8,6.4"/>
			<path class="figure" d="M99.8,48.2C93.7,52.4,81.1,62.8,74.5,67c-0.1,0-0.1,0.1,0,0l25.3,17.8"/>
			<rect class="background" x="0" y="0" width="130" height="130" mask="url(#mask)"/>
		</a>
	</g>
</g>
</svg>
